<svg id="Layer_1" data-name="Layer 1" xmlns="http://www.w3.org/2000/svg" viewBox="0 0 791.6 612">
  <defs>
    <style>
      .cls-1, .cls-2, .cls-4 {
        fill: #000000;
      }
      .cls-3{
        fill: none;
        stroke: none;
      }
      .cls-1, .cls-2, .cls-4 {
        stroke: none;
        stroke-miterlimit: 10;
      }

      .cls-1 {
        stroke-width: 3px;
      }

      .cls-4 {
        stroke-width: 0.3px;
      }
    </style>
  <mask id="c1" maskUnits="userSpaceOnUse" maskContentUnits="userSpaceOnUse">  </mask>
  </defs>


  <title>snkrgks-airmax6</title>
  <g>
    <path class="cls-1 airmaxsvg" d="M728.09,409.39L719,424.23l-31.3,22.27-49.9,10.21H253.15L161.52,446.5,68.08,412.63,56.58,391.91l243.74,7.26,163.3-33.4,207.75-12.53,32.21,14.38L721,359.28Z" transform="translate(-0.4)"/>
    <path class="cls-2 airmaxsvg" d="M59.91,316.6L76.7,299,95.75,316.3H239.7l38.1,21.65,18.14-6.19L302,303.92l13.91-13h27.22l61.69,31.24,300.59-43,26.85,11.08,1.27,5.47-8.62,45-18.14,8.35L674.56,334.7,466.8,347.22l-163.3,33.4-245-8.35L52.2,354.64a92.4,92.4,0,0,1,7.71-38" transform="translate(-0.4)"/>
    <path class="cls-3 airmaxsvg" d="M479.16,397.32H640.54a10.09,10.09,0,0,1,10,10.21v4.18a10.09,10.09,0,0,1-10,10.21H479.16a10.09,10.09,0,0,1-10-10.21v-4.18A10.09,10.09,0,0,1,479.16,397.32Z" transform="translate(-0.4)"/>
    <path class="cls-4 airmaxsvg" d="M432.37,456.7" transform="translate(-0.4)"/>
    <path class="cls-2 airmaxsvg" d="M233,257.22l46.13-13.34,81.05-47.59,43.55-37.73L416.45,140l37.5-4.32,53.23,36.19,38.56,19,63.51-8.35L664.58,132a24.64,24.64,0,0,1,14.36-3.09c10.72,1.06,16.82,9.11,17.85,10.51l11,47.22a140.85,140.85,0,0,0-90.5,30.72c-37.69,30.22-48,70.19-50.55,81.65l-162.34,23.2-61.69-31.24-27.82.31-13,13-1.52,5.88-35.08-17.93-67.43-11.76Z" transform="translate(-0.4)"/>
    <ellipse class="cls-2 airmaxsvg" cx="447.58" cy="154.46" rx="7.03" ry="7.19"/>
    <ellipse class="cls-2 airmaxsvg" cx="475.02" cy="170.47" rx="6.8" ry="6.96"/>
    <ellipse class="cls-2 airmaxsvg" cx="291.61" cy="256.8" rx="7.1" ry="7.22"/>
    <ellipse class="cls-2 airmaxsvg" cx="324.27" cy="238.35" rx="7.1" ry="7.22"/>
    <ellipse class="cls-2 airmaxsvg" cx="355.51" cy="219.35" rx="7.1" ry="7.22"/>
    <ellipse class="cls-2 airmaxsvg" cx="387.23" cy="199.22" rx="7.1" ry="7.22"/>
    <ellipse class="cls-2 airmaxsvg" cx="415" cy="178.16" rx="7.1" ry="7.22"/>
    <path class="cls-2 airmaxsvg" d="M77.15,299l121.11-18.56,72-47.32L453.65,112.48a32.53,32.53,0,0,1,34.47-4.83c13.61,6.21,17.24,21.53,19.51,30.81a65.83,65.83,0,0,1-.75,33.21l39.31,19.22,63.51-8.35L665,132a24.67,24.67,0,0,1,32.21,7.42l34.57,150.86L705,279.18l-299.68,43-61.69-31.24H316.36l-13.91,13-6.21,27.53-18.44,6.49L240.15,316.3,95.75,316Z" transform="translate(-0.4)"/>
  </g>
</svg>
