<svg id="Layer_2" data-name="Layer 2" xmlns="http://www.w3.org/2000/svg" xmlns:xlink="http://www.w3.org/1999/xlink" viewBox="0 0 855.67 455.37">
  <defs>
    <style>
      .cls-1, .cls-2, .cls-3, .cls-4, .cls-5 {
        fill: #272525;
      }

      .cls-1 {
        opacity: 0.4;
      }

      .cls-2 {
        opacity: 0.4;
      }

      .cls-3 {
        opacity: 0.5;
      }

      .cls-5 {
        font-size: 36px;
        font-family: Myriad Pro;
        fill: #FFFFFF;
      }

      .cls-6 {
        letter-spacing: -2px;
      }

      .cls-1:hover, .cls-2:hover, .cls-3:hover, .cls-4:hover{
        opacity: 0;
      }
      .cls-5 {
      opacity: 0;
      }

      .outsole:hover ~ #outsole{
      opacity:1;
      }
      .midsole:hover ~ #midsole{
      opacity:1;
      }
      .strap:hover ~ #strap {
      opacity:1;
      }

      .tongue:hover ~ #tongue{
      opacity:1;
      }

      .innensocke:hover ~ #innensocke{
      opacity:1;
      }

      .outsole:hover ~ #outsole{
      opacity:1;
      }

      .upper:hover ~ #upper{
      opacity:1;
      }

      .bubble:hover ~ #bubble{
      opacity:1;
      }

      .toebox:hover ~#toebox{
      opacity:1;
      }

      .laces:hover ~#laces
      {
      opacity:1;
      }

    </style>
  </defs>
  <title>DIC-PIC3</title>
  <image width="1666" height="871" transform="translate(64.95 27.04) scale(0.47 0.47)" xlink:href="img/am1.png"/>
  <path class="cls-1 outsole" d="M85.64,364.29l-4.35-15.94,20.29,18.12Q150.72,373.33,202,379c18.29,2,38.37,3.57,78.48,6.94,50.39,4.23,76.3,6.38,111.52,8.39,28.58,1.63,27.91,1.15,48,2.57,49.25,3.46,51.25,6.41,82,7.43a764.56,764.56,0,0,0,78.86-1.64C627,401,661.33,402.43,726.22,386A548.84,548.84,0,0,0,811,357a39.12,39.12,0,0,0,14.49-12.32,38.68,38.68,0,0,0,5.8-12.32l9.42-4.35a27.18,27.18,0,0,1-2.17,19.57,115.14,115.14,0,0,1-37.68,26.09l-50.72,18.12-37,10.14-34.78,5.8-24.64,4.35L624,414.29l-27.54,2.9H565.35l-26.81.72-55.07-2.17-16.67-2.9-50-3.62-31.88-.72-11.59-4.35-37.68-.72L305.2,402l-46.38-2.9-51.45-4.35q-29.65-3.3-60.71-7.72-22.25-3.19-43.64-6.77Z" transform="translate(0 -3.53)"/>
  <path class="cls-1 upper" d="M87.09,295.45a204.47,204.47,0,0,0,.58-21.12C87.4,263.35,86.42,259,87,251a79.41,79.41,0,0,1,4.67-21.5A21.89,21.89,0,0,1,102,219.67,21.63,21.63,0,0,1,113.67,218c54.5,15,97.09,28.56,126.33,38.33,18,6,33.74,11.54,58.33,19,37.19,11.29,68,18.94,88.33,23.67,15.08-3.06,27.6-6.48,37-9.33,20.2-6.13,30.3-9.2,39.67-14,12-6.16,20.38-12.56,34.67-13.33a53,53,0,0,1,11.67.67l17,9a122.73,122.73,0,0,0,19,36.5,36.84,36.84,0,0,0,24.5-3l26.5-13.5A123.49,123.49,0,0,1,638,288c82.84,5.58,139.67-4.33,139.67-4.33a311,311,0,0,0,43-10.67,30.07,30.07,0,0,1,9.67,8.33c2.79,3.75,3.95,7.23,5.58,12.17a82.8,82.8,0,0,1,3,12.25,123.77,123.77,0,0,1,1.79,22.31l-9.42,4.35A41.62,41.62,0,0,1,811,357l-62.32,9.42-205.07-8-64.49-10.87L288.54,296.9l-171-14.49-21.74,13h-8.7Z" transform="translate(0 -3.53)"/>
  <path class="cls-3 strap" d="M105.17,153a19.63,19.63,0,0,1,12.5-6.5,182.82,182.82,0,0,1,26.67,10.17c2.4,1.14,7.44,3.59,13.33,7,5.31,3.07,17.06,10.26,35,26.33,14.59,13.07,21.9,19.58,29.5,30a133.82,133.82,0,0,1,18.5,35.67l-127-37.33a21.23,21.23,0,0,0-11.33,1.33,21.6,21.6,0,0,0-10.67,9.83c0.77-10.51,2-21.83,4-33.83A383.85,383.85,0,0,1,105.17,153Z" transform="translate(0 -3.53)"/>
  <polygon class="cls-1 tongue" points="322.67 112.47 327.17 100.97 363.67 60.47 389.17 39.97 405.67 39.47 438.17 79.97 428.17 85.97 423.67 95.97 395.67 104.47 373.67 98.47 322.67 112.47"/>
  <polygon class="cls-1 laces" points="456.17 72.47 463.17 70.97 475.17 75.47 494.67 83.97 508.17 95.97 508.67 101.97 501.17 112.47 490.67 114.97 458.17 100.97 455.67 103.97 461.67 111.97 469.17 114.47 476.17 121.47 491.67 125.97 500.67 135.97 515.17 144.47 521.17 152.47 523.17 158.97 545.67 174.97 578.67 190.97 582.67 193.97 577.67 197.97 579.17 202.47 586.17 203.47 593.17 206.97 601.67 199.47 611.67 201.97 620.17 209.97 604.17 229.97 592.67 234.47 585.67 232.47 584.17 222.97 588.17 214.47 574.17 209.97 565.17 209.97 559.17 224.97 551.67 222.97 549.17 206.97 533.17 198.47 522.67 212.97 516.17 212.47 520.67 190.97 509.67 178.97 503.17 187.97 493.67 190.97 486.17 186.47 486.17 176.97 491.17 168.97 468.17 164.97 472.17 179.97 472.67 182.97 468.67 184.97 464.67 183.47 462.67 175.97 458.17 184.47 452.67 185.97 450.17 178.47 455.67 160.97 451.67 158.97 452.17 152.47 447.67 146.97 437.17 160.97 427.17 165.97 424.67 162.47 425.67 150.47 407.67 153.97 394.17 149.97 389.17 126.97 384.67 137.97 371.67 141.47 372.17 131.97 385.17 111.97 395.67 104.47 423.67 95.97 428.17 85.97 438.17 79.97 443.17 78.97 452.67 51.47 461.17 51.47 456.17 72.47"/>
  <path class="cls-1 innensocke" d="M673.17,245.5a44.59,44.59,0,0,1-12.5,15.5c-12.75,9.82-24.22,6.45-52.67,8.67-46.74,3.64-64.05,16.21-66.67,23.33-0.23.64-.8,2.45-2,2.67-3.38.62-8.54-11.91-12.67-23.67a44.71,44.71,0,0,0-17-9c-22.75-6.08-35.13,11.87-80.33,25.33C412.27,293.42,386.86,299,386.67,299c-28.13-6.3-57.91-14.06-89-23.67-19.67-6.08-38.45-12.45-56.33-19-1.81-4.26-4.35-9.83-7.73-16.18A175.49,175.49,0,0,0,220.67,219c-8.74-11.93-17-19.29-28-29-13.45-11.86-21.44-18.9-34-26.33a164.07,164.07,0,0,0-41-17.17,21.72,21.72,0,0,0-12.5,6.5,165.51,165.51,0,0,0,7.17-23.67c1-4.51,2.16-10.88,6.33-18.33a52.8,52.8,0,0,1,3.67-5.67,10.54,10.54,0,0,1,3-3.67,10.69,10.69,0,0,1,5.83-2.17,55.92,55.92,0,0,1,24.5-2,43.34,43.34,0,0,1,16.5,12.5l19.17,28.67a24.08,24.08,0,0,0,10,9.33,22.91,22.91,0,0,0,6,3.67,29.84,29.84,0,0,0,6.33,1.67c7.27,1.43,6.49,1.74,10.33,2.33a57.34,57.34,0,0,0,14.33.33,59.7,59.7,0,0,0,10.33-2,69.45,69.45,0,0,0,9.67-3.67c8.46-3.71,12.69-5.57,17-7.67,4-1.95,10-5,18-9.33,10.48-5.71,20.26-11.54,29.33-17.33,7.54-2.67,15.66-5.26,24.33-7.67,9.36-2.59,18.28-4.67,26.67-6.33l22,6-10.5,7.5-13,20a12.63,12.63,0,0,0-.5,9.5,18.65,18.65,0,0,0,13-3.5l4.5-11q1.33,6.66,2.83,13.5,1.06,4.81,2.17,9.5a29.46,29.46,0,0,0,13.5,4l18-3.5-1,12,2.5,3.5a14.31,14.31,0,0,0,10-5l10.5-14,4.5,5.5-0.5,6.5,4,2-5.5,17.5a5.16,5.16,0,0,0,2.5,7.5l5.5-1.5,4.5-8.5,2,7.5,4,1.5,4-2-4.5-18,23,4-5,8V190l7.5,4.5,9.5-3,6.5-9,11,12A32.27,32.27,0,0,0,516,208a31.65,31.65,0,0,0,.17,8l6.5,0.5,10.5-14.5,16,8.5a29.18,29.18,0,0,0,2.5,16l7.5,2a33.92,33.92,0,0,0,6-15l11.5,1.5,11.5,3-4,8.5a19.92,19.92,0,0,0,1.5,9.5l7,2a15.39,15.39,0,0,0,7.67-1.67,15.05,15.05,0,0,0,3.83-2.83l16-20-8.5-8-10-2.5-8.5,7.5-7-3.5-7-1-1.5-4.5,5-4,16,5L612,204.33l9.33,8.33V216l10,8.67A179.46,179.46,0,0,0,673.17,245.5Z" transform="translate(0 -3.53)"/>
  
  <path class="cls-3 midsole" d="M87.33,296l8.45-.55,21.74-13,171,14.49,190.58,50.72,64.49,10.87,205.07,8L811,357a567.48,567.48,0,0,1-83.33,28.26c-48.91,12.45-88,14.86-126.81,17.39a752.13,752.13,0,0,1-80.19,1.64c-23.93-.84-33.88-3.71-80.68-7.43-5.72-.45-19.44-1.39-46.65-3.23-64.42-4.37-73.34-4.88-95.08-6.49-12.69-.94-39.69-2.71-67.58-5.51q-66.32-6.67-129.09-15.2L81.29,348.35A223.1,223.1,0,0,1,87.33,296Zm95.33,59.25a9.9,9.9,0,0,0,3.75,2c17.24,2.09,32.21,3.62,44.25,4.75,11.71,1.1,25.7,2.39,44.25,3.5,13.44,0.8,24.87,1.24,33.5,1.5a14.26,14.26,0,0,0,3.5-3.75,14.6,14.6,0,0,0,2.25-7.75,12,12,0,0,0-1.25-7.75,12.25,12.25,0,0,0-7.25-5.75l-119.75-7.75a11.93,11.93,0,0,0-5.5,4.5c-3.16,4.9-1.25,10.33-1,11A10.18,10.18,0,0,0,182.67,355.25Z" transform="translate(0 -3.53)"/>
  
  <path class="cls-1 toebox"  d="M716.07,258.33c44.1,6.46,65.43,8.3,74.84,7.92a55.65,55.65,0,0,1,21.5,3,52.66,52.66,0,0,1,8.25,3.75A282,282,0,0,1,784,282c-9.17,1.61-16.67,2.46-26,3.33-18.39,1.72-40.6,3.8-71,4-18,.12-39.24-0.41-63-2.33a107.32,107.32,0,0,0-53.83,18.5A111.61,111.61,0,0,1,556,309a24.08,24.08,0,0,1-5.33.33,23,23,0,0,1-5-.83,34,34,0,0,1-7-11.5,40.42,40.42,0,0,1,9.67-12c6.46-5.4,13.12-7.33,22-9.33A309.84,309.84,0,0,1,614.67,269c7.6-.57,17.85-1.16,30.06-1.33a37.24,37.24,0,0,0,28.44-22.17Z" transform="translate(0 -3.53)"/>

  <path class="cls-1 bubble" d="M178.62,345a11.34,11.34,0,0,1,7.3-10.75L305.67,342a14.14,14.14,0,0,1,2.75,25l-122-9.75A12.93,12.93,0,0,1,178.62,345Z" transform="translate(0 -3.53)"/>

  <text class="cls-5" id="outsole" transform="translate(322.67 446.37)">O<tspan x="24.91" y="0">utsole</tspan></text>
  <text class="cls-5" id="toebox" transform="translate(699.67 234.47)"><tspan class="cls-6">Toebox</tspan></text>
  <text class="cls-5" id="strap" transform="translate(7 179.47)">S<tspan x="17.64" y="0">t</tspan><tspan x="29.56" y="0">r</tspan><tspan x="41.15" y="0">ap</tspan></text>
  <text class="cls-5" id="bubble" transform="translate(0 398.8)">Bubble</text>
  

  <text class="cls-5" id="laces" transform="translate(529.17 142.97)">La<tspan x="34.34" y="0">c</tspan><tspan x="50.25" y="0">es</tspan></text>

  <text class="cls-5" id="upper" transform="translate(629.17 142.97)">Upper</text>

  <text class="cls-5" id="innensocke" transform="translate(76.29 81.3)">I<tspan x="8.96" y="0">nnensocke</tspan></text>
  <text class="cls-5" id="midsole" transform="translate(694.67 452.13)">M<tspan x="29.38" y="0">idsole</tspan></text>
  <text class="cls-5" id="tongue" transform="translate(340.33 30.13)"><tspan class="cls-6">T</tspan><tspan x="15.34" y="0">ongue</tspan></text>
</svg>
