<svg id="Ebene_1" data-name="Ebene 1" xmlns="http://www.w3.org/2000/svg" viewBox="0 0 78.92 34.59">
  <defs>
    <style>
      .cls-1 {
        fill: #1d1d1b;
      }
    </style>
  </defs>

  <title>logo-small</title>

  <path class="cls-1" d="M8,23.65a7.11,7.11,0,0,0,.94,3,6.33,6.33,0,0,0,2,2,8.37,8.37,0,0,0,2.77,1.14,15.16,15.16,0,0,0,3.36.36,12.93,12.93,0,0,0,3.62-.45,7.2,7.2,0,0,0,2.49-1.21,4.82,4.82,0,0,0,1.42-1.78A5.11,5.11,0,0,0,25,24.66a3.79,3.79,0,0,0-.83-2.54A6.23,6.23,0,0,0,22,20.53a14.67,14.67,0,0,0-3.05-1q-1.72-.37-3.53-.73T11.91,18a11.91,11.91,0,0,1-3.05-1.31A6.74,6.74,0,0,1,6.7,14.55a6,6,0,0,1-.83-3.27,5.8,5.8,0,0,1,.68-2.69,6.87,6.87,0,0,1,2-2.32,10.36,10.36,0,0,1,3.34-1.61,16.21,16.21,0,0,1,4.62-.6,15.28,15.28,0,0,1,4.64.64,9.6,9.6,0,0,1,3.29,1.74,7.17,7.17,0,0,1,2,2.56,7.5,7.5,0,0,1,.65,3.1H24.23a5.33,5.33,0,0,0-.63-2.66,5.23,5.23,0,0,0-1.72-1.83,7.93,7.93,0,0,0-2.49-1,12.25,12.25,0,0,0-2.88-.34,11.64,11.64,0,0,0-3.82.54,6.86,6.86,0,0,0-2.46,1.4A4.62,4.62,0,0,0,9,10.08a4,4,0,0,0-.13,2.09,3.49,3.49,0,0,0,1.22,2.09,7.94,7.94,0,0,0,2.35,1.29,19.91,19.91,0,0,0,3.07.82l3.42.67q1.74.36,3.38.84a11.1,11.1,0,0,1,2.9,1.31,6.35,6.35,0,0,1,2,2.11A6.27,6.27,0,0,1,28,24.55a6.62,6.62,0,0,1-3,5.8q-3,2.06-8.46,2.06A18.05,18.05,0,0,1,12,31.86a10.64,10.64,0,0,1-3.62-1.65A7.76,7.76,0,0,1,6,27.48a8.16,8.16,0,0,1-.85-3.83Z" transform="translate(-5.13 2.18)"/>
  <g>
  	
    <path class="cls-1" d="M31.14,13.64h0v11.3h-.92V12h1L36.85,23.3h0V12h.92v13H36.73Z" transform="translate(-5.13 2.18)"/>

    <path class="cls-1" d="M40,24.94V12h.92V18.7l5-6.71h1l-3.83,5.17,4.51,7.79H46.51l-4.05-7-1.53,2v5Z" transform="translate(-5.13 2.18)"/>

    <path class="cls-1" d="M49.87,19.06v5.89l-.92,0V12h3.81a3.45,3.45,0,0,1,2.46.8,3.44,3.44,0,0,1,.85,2.6,4.28,4.28,0,0,1-.37,1.94,3.12,3.12,0,0,1-1.21,1.22,1.55,1.55,0,0,1,.67.58,2.87,2.87,0,0,1,.36.86,5.68,5.68,0,0,1,.16,1q0,.54,0,1,0,.74,0,1.22c0,.32,0,.59.08.79a2.3,2.3,0,0,0,.11.48.73.73,0,0,0,.16.26v.11l-1,0a3,3,0,0,1-.21-.9q-.06-.58-.09-1.21t-.05-1.22a9.38,9.38,0,0,0-.07-1,2.43,2.43,0,0,0-.26-.84,1.36,1.36,0,0,0-.44-.48,1.55,1.55,0,0,0-.57-.22,3.88,3.88,0,0,0-.65-.05Zm2.86-1a3,3,0,0,0,1-.14,1.94,1.94,0,0,0,.76-.46,2.23,2.23,0,0,0,.51-.8,3.23,3.23,0,0,0,.19-1.17,3.11,3.11,0,0,0-.2-1.19,1.86,1.86,0,0,0-.53-.74,1.94,1.94,0,0,0-.76-.38,3.59,3.59,0,0,0-.88-.11H49.87v5Z" transform="translate(-5.13 2.18)"/>

    <path class="cls-1" d="M62.11,19.29v-1h4.16v6.7h-.78V22.73a6.47,6.47,0,0,1-.59,1.05,3.6,3.6,0,0,1-.76.81,3.21,3.21,0,0,1-1,.51,4.24,4.24,0,0,1-1.28.18,3.46,3.46,0,0,1-1.7-.43,3.88,3.88,0,0,1-1.35-1.29,6.79,6.79,0,0,1-.88-2.15,12.79,12.79,0,0,1-.32-3,12.42,12.42,0,0,1,.27-2.66,6.85,6.85,0,0,1,.83-2.14,4.31,4.31,0,0,1,1.4-1.43,3.71,3.71,0,0,1,2-.52,4,4,0,0,1,1.44.25,3.51,3.51,0,0,1,1.2.76,4.35,4.35,0,0,1,.9,1.28,6.54,6.54,0,0,1,.53,1.81h-.95a4.56,4.56,0,0,0-.41-1.3,3.52,3.52,0,0,0-.7-1,2.93,2.93,0,0,0-.9-.59,2.69,2.69,0,0,0-1-.21,2.94,2.94,0,0,0-1.65.45,3.45,3.45,0,0,0-1.13,1.27,6.58,6.58,0,0,0-.65,2,14,14,0,0,0-.21,2.51,8.63,8.63,0,0,0,.24,2.05,5.91,5.91,0,0,0,.69,1.71,3.66,3.66,0,0,0,1.11,1.17,2.65,2.65,0,0,0,1.49.43,3,3,0,0,0,.81-.12,2.72,2.72,0,0,0,.81-.39,3.34,3.34,0,0,0,.73-.7A4.13,4.13,0,0,0,65,22a5.81,5.81,0,0,0,.32-1.28,12.42,12.42,0,0,0,.1-1.4Z" transform="translate(-5.13 2.18)"/>
    <path class="cls-1" d="M68.53,24.94V12h.92V18.7l5-6.71h1l-3.83,5.17,4.51,7.79H75l-4-7-1.53,2v5Z" transform="translate(-5.13 2.18)"/>

    <path class="cls-1" d="M77.86,21.07a4.89,4.89,0,0,0,.29,1.47,2.88,2.88,0,0,0,.61,1,2.22,2.22,0,0,0,.86.55,3.1,3.1,0,0,0,1,.17A2.68,2.68,0,0,0,81.77,24a2.08,2.08,0,0,0,.77-.58,2.45,2.45,0,0,0,.44-.85,3.64,3.64,0,0,0,.14-1,2.55,2.55,0,0,0-.26-1.22,2.29,2.29,0,0,0-.67-.77,3.54,3.54,0,0,0-.94-.48l-1.09-.35a9.81,9.81,0,0,1-1.09-.4,3.21,3.21,0,0,1-.95-.63,3,3,0,0,1-.67-1,4.16,4.16,0,0,1-.26-1.58,4.08,4.08,0,0,1,.21-1.3A3.31,3.31,0,0,1,78,12.7a3,3,0,0,1,1-.77,3.37,3.37,0,0,1,1.43-.29,3.19,3.19,0,0,1,1.44.31,2.88,2.88,0,0,1,1,.84A3.71,3.71,0,0,1,83.56,14a5.37,5.37,0,0,1,.2,1.49h-.88a3.77,3.77,0,0,0-.2-1.28,2.41,2.41,0,0,0-.53-.88,2.13,2.13,0,0,0-.77-.5,2.52,2.52,0,0,0-.89-.16,2.44,2.44,0,0,0-1.18.26,2.15,2.15,0,0,0-.76.68,2.55,2.55,0,0,0-.39.92,2.92,2.92,0,0,0,0,1,2,2,0,0,0,.38,1,2.42,2.42,0,0,0,.73.62,4.53,4.53,0,0,0,1,.4l1.06.32a9,9,0,0,1,1,.4,3.05,3.05,0,0,1,.9.63,2.87,2.87,0,0,1,.63,1A4.42,4.42,0,0,1,84,21.5a3.91,3.91,0,0,1-.93,2.79,3.42,3.42,0,0,1-2.62,1,3.72,3.72,0,0,1-1.4-.26A3,3,0,0,1,78,24.23a3.75,3.75,0,0,1-.74-1.31A5.79,5.79,0,0,1,77,21.07Z" transform="translate(-5.13 2.18)"/>

  </g>
  <text x="-5.13" y="2.18"></text>
</svg>
