<?xml version="1.0" encoding="utf-8"?>
<!-- Generator: Adobe Illustrator 19.2.1, SVG Export Plug-In . SVG Version: 6.00 Build 0)  -->
<svg version="1.1" id="Layer_1" xmlns="http://www.w3.org/2000/svg" xmlns:xlink="http://www.w3.org/1999/xlink" x="0px" y="0px"
	 viewBox="0 0 5484.8 1897.8" style="enable-background:new 0 0 5484.8 1897.8;" xml:space="preserve">
<style type="text/css">
	.st0{fill:none;stroke:#1D1D1B;stroke-width:50;stroke-miterlimit:100;}
	.st1{fill:#1D1D1B;}
</style>
<title>snkrgks-logo-small 23</title>
<g>
	<path class="st0" d="M1189.9,362.2c-26.8-62-64.7-113-113.8-153.1s-107.7-69.4-175.7-87.7c-68.1-18.3-143.4-27.5-226-27.5
		c-120.5,0-215.4,16.6-284.5,49.9s-120.5,71.1-153.9,113.5c-33.5,42.5-54.7,84.3-63.6,125.6c-8.9,41.3-13.4,69.9-13.4,86
		c0,87.2,17.3,154.3,51.9,201.3c34.6,47,80.9,83.1,138.9,108.4c60.3,25.3,125.5,47.1,195.8,65.4c70.3,18.3,152.3,40.1,246,65.4
		c66.9,18.4,133.3,37.3,199.2,56.8s125,46.4,177.4,80.9c52.4,34.4,94.8,78,127.2,130.8s48.6,121.6,48.5,206.5
		c0,89.5-18.4,165.2-55.2,227.1s-84.8,112.4-143.9,151.4c-59.2,39-126.1,67.1-200.8,84.3s-148.9,25.8-222.6,25.8
		c-229.9,0-403.4-51.6-520.5-154.8C83.5,1614.7,25,1451.8,25,1229.3h66.9c0,199.6,54.1,345.8,162.4,438.7
		c108.2,92.9,263.9,139.4,467,139.4c62.5,0,126.6-7.5,192.5-22.4s125.6-39,179.1-72.3c53-32.7,98.2-76.8,132.2-129
		c34.6-52.7,51.9-117,51.9-192.7c0-78-17.3-141-51.9-189.2s-79.2-87.8-133.9-118.7c-54.7-31-117.7-55.6-189.1-74
		c-71.4-18.4-143.9-36.7-217.6-55.1c-82.6-20.7-155.1-40.2-217.6-58.5c-62.5-18.3-118.3-39-167.4-61.9
		c-71.4-32.1-123.9-76.8-157.3-134.2C108.7,642.1,92,565.2,91.9,468.9c0-48.2,10-98.6,30.1-151.4S175.6,216.5,222.5,173
		c46.9-43.5,107.1-79.1,180.8-106.7S567.3,25,674.4,25c191.9,0,343.7,44.7,455.2,134.2S1297,392,1297,589.3h-67
		C1230.1,499.9,1216.7,424.2,1189.9,362.2z"/>
	<path class="st1" d="M1462.4,43.7v198.1h3.2c7-30.4,19-59.3,35.4-85.8c16.4-26.2,37.2-49.4,61.4-68.6c24.7-19.7,53.3-35.1,85.8-46
		S1716.9,25,1756.8,25c42,0,80.5,6.2,115.7,18.7c35.2,12.5,65.6,30.9,91.3,55.4c25.7,24.4,45.6,54.6,59.8,90.5s21.3,77.2,21.2,124
		v531.8h-31.5V318.2c0-46.8-6.8-86.6-20.5-119.3s-32.3-59.8-55.9-81.1c-23.6-21.3-51.5-37.3-81.8-46.8c-31-9.9-63.8-14.8-98.4-14.8
		c-48.3,0-90.8,9.1-127.5,27.3c-36.7,18.2-67.4,42.6-92.1,73.3c-24.7,30.7-43.3,66.3-55.9,106.8s-18.9,83.2-18.9,127.9v453.9h-31.5
		V43.7H1462.4L1462.4,43.7z"/>
	<path class="st1" d="M2289.5,1138.6H2258V25h31.5v772l558.8-460.1h45.6l-371.5,305.7l398.2,496h-42.5l-379.3-474.1l-209.3,171.6
		L2289.5,1138.6L2289.5,1138.6z"/>
	<path class="st1" d="M2960.3,845.4V43.8h31.5v198.1h3.1c7.2-29.9,18.9-58.6,34.6-85c15.7-26.5,36.7-49.6,63-69.4
		s57.5-35.4,93.6-46.8c36.2-11.4,78.4-16.6,126.7-15.6v31.2c-55.6-3.1-103.6,4.4-144,22.6c-40.4,18.2-73.7,43.2-100,74.9
		c-26.2,31.7-45.7,68.4-58.2,110c-12.6,41.4-18.9,84.5-18.9,127.8v453.8H2960.3L2960.3,845.4z"/>
	<path class="st1" d="M4027.4,577.1c-8,34.5-23.3,67-44.9,95.1c-21.1,27.7-46.6,51.7-75.6,71c-29,19.3-60.9,34.1-94.4,43.7
		c-33.5,9.8-68.2,14.8-103.1,14.8c-56.7,0-106-10.4-148-31.2s-76.9-48.6-104.7-83.4c-27.8-34.8-48.8-75.6-63-122.4
		s-21.3-95.7-21.2-146.6c0-54.1,7.3-104.7,22-152.1c14.7-47.3,36.7-88.9,66.1-124.8c29.3-35.9,65.8-64.2,109.4-85
		s93.7-31.2,150.3-31.2c38.8,0,75,6,108.6,17.9c32.6,11.4,63.2,28,90.5,49.1c53.5,41.4,91.5,99.7,107.8,165.3h3.1V43.7h31.5v775.1
		c0,110.2-29.4,191-88.1,242.5c-58.8,51.5-141.7,77.2-248.7,77.2c-40.9,0-79.8-4.7-116.5-14c-36.7-9.3-69.3-24.2-97.6-44.4
		c-28.3-20.3-50.9-46.3-67.7-78c-16.8-31.7-25.7-70.5-26.7-116.2h31.5c1,39.5,9.2,73.3,24.4,101.4c15.2,28.1,35.4,51,60.6,68.6
		c25.2,17.7,54.3,30.7,87.4,39c33.7,8.4,68.4,12.6,103.1,12.5c98.6,0,174.4-23.1,227.4-69.4c53-46.3,79.5-119.3,79.5-219.1V577.1
		H4027.4L4027.4,577.1z M4009.3,283.9c-13.1-43.7-32.5-82.4-58.2-116.2c-25.7-33.8-58-60.8-96.8-81.1
		c-38.8-20.3-83.4-30.4-133.8-30.4c-52.5,0-98.4,9.6-137.7,28.8c-39.3,19.2-72.4,45.5-99.2,78.8c-26.8,33.3-46.7,71.8-59.8,115.4
		s-19.7,89.9-19.7,138.8c0,49.9,6.6,96.2,19.7,138.8s32.5,79.8,58.2,111.5c25.7,31.7,57.4,56.7,95.2,74.9s81.3,27.3,130.6,27.3
		c52.5,0,98.6-9.4,138.5-28.1c39.9-18.7,73.2-43.9,100-75.6c26.8-31.7,47.2-69.1,61.4-112.3S4029,465.9,4029,418
		C4029,372.6,4022.4,327.4,4009.3,283.9z"/>
	<path class="st1" d="M4233.4,1138.6h-31.5V25h31.5v772l558.8-460.1h45.6l-371.5,305.7l398.2,496h-42.5l-379.3-474.1l-209.4,171.6
		V1138.6L4233.4,1138.6z"/>
	<path class="st1" d="M5376.4,177.9c-12.6-28.1-30.4-51.2-53.5-69.4s-50.6-31.5-82.6-39.8c-32-8.3-67.4-12.5-106.2-12.5
		c-56.7,0-101.3,7.5-133.8,22.6c-32.5,15.1-56.7,32.2-72.4,51.5c-15.7,19.3-25.7,38.2-29.9,56.9c-4.2,18.7-6.3,31.7-6.3,39
		c0,39.5,8.1,69.9,24.4,91.2c16.3,21.3,38,37.7,65.3,49.1c30,12,60.7,21.9,92.1,29.6c33.1,8.3,71.6,18.2,115.7,29.6
		c31.5,8.3,62.7,16.9,93.7,25.7s58.8,21,83.4,36.7c24.1,15.1,44.5,35.3,59.8,59.3c15.2,23.9,22.8,55.1,22.8,93.6
		c0,40.6-8.7,74.9-26,102.9c-17,27.8-40.2,51.2-67.7,68.6c-27.8,17.7-59.3,30.4-94.4,38.2c-34.4,7.7-69.5,11.6-104.7,11.7
		c-108.1,0-189.7-23.4-244.8-70.2c-55.1-46.8-82.6-120.6-82.6-221.4h31.5c0,90.5,25.4,156.7,76.3,198.8
		c50.9,42.1,124.1,63.2,219.6,63.2c30.4-0.1,60.8-3.5,90.5-10.1c30.9-6.7,59-17.7,84.2-32.8c24.8-14.7,46-34.6,62.2-58.5
		c16.3-23.9,24.4-53,24.4-87.3c0-35.3-8.1-63.9-24.4-85.8s-37.3-39.8-63-53.8c-25.7-14-55.4-25.2-88.9-33.5
		c-33.6-8.3-67.7-16.7-102.3-25c-38.8-9.3-72.9-18.2-102.3-26.5c-29.4-8.3-55.6-17.7-78.7-28.1c-33.6-14.5-58.3-34.8-74-60.8
		c-15.7-26-23.6-60.8-23.6-104.5c0-21.8,4.7-44.7,14.2-68.6c9.4-23.9,25.2-45.7,47.2-65.5c22-19.7,50.4-35.9,85-48.3
		c34.6-12.5,77.1-18.7,127.5-18.7c90.2,0,161.6,20.3,214.1,60.8s78.7,105.6,78.7,195h-31.5C5395.3,240.3,5389,206,5376.4,177.9z"/>
</g>
</svg>
