<svg id="Layer_2" data-name="Layer 2" xmlns="http://www.w3.org/2000/svg" viewBox="0 0 794 615.54">
  <defs>
    <style>
      .cls-1, .cls-3, .cls-5 {
        fill: none;
      }

      .cls-1, .cls-2, .cls-3, .cls-4, .cls-5, .cls-6 {
        stroke: #231f20;
        stroke-miterlimit: 10;
      }

      .cls-2, .cls-4, .cls-6 {
        fill: #231f20;
      }

      .cls-3 {
        stroke-width: 3px;
      }

      .cls-4 {
        opacity: 0.57;
      }

      .cls-5 {
        stroke-width: 0.3px;
      }

      .cls-6 {
        opacity: 0.53;
      }
    </style>
  </defs>
  <title>snkrgks-airmax3</title>
  <circle class="cls-1" cx="793.5" cy="615.04"/>
  <g>
    <path class="cls-2" d="M403.45,285.89l-0.39.05,0.11,0.05,0.39-.05Z" transform="translate(1.5 3.04)"/>
    <polygon class="cls-2" points="284.72 299.14 264.67 306.04 284.67 299.38 284.72 299.14"/>
    <polygon class="cls-2" points="735.5 242.71 570.33 265.88 735.63 242.76 735.5 242.71"/>
    <path class="cls-2" d="M-1-2.54V612H792V-2.54H-1ZM749.5,396L715,420l-55,11H236L135,420,32,383.5,19.33,361.17,288,369l180-36,229-13.5L732.5,335l19.17-9,7.83,54Zm6.5-90-20,9-35.5-15.5L471.5,313l-180,36-270-9-7-19A97.69,97.69,0,0,1,23,280l18.5-19,21,18.67H221.17l42,23.33-41.5-23.33L62.5,279.33,42,261l133.23-20L175,241l38.81-25,0.89-.25L254.88,190,457,60a36.5,36.5,0,0,1,38-5.21C510,61.48,514,78,516.5,88a69.42,69.42,0,0,1-.83,35.78l0.06,0,43.16,20.63,69.61-8.95,61-54.5a27.67,27.67,0,0,1,15.83-3.33c0.88,0.09,1.72.22,2.54,0.39l0.46,0.07A28.25,28.25,0,0,1,725.5,89l38,162.38,0.55,0.22,1.4,5.9Z" transform="translate(1.5 3.04)"/>
  </g>
  <g>
    <path class="cls-3" d="M759.39,379.95l-10,16-34.5,24-55,11h-424l-101-11-103-36.5L19.23,361.12l268.67,7.83,180-36,229-13.5,35.5,15.5,19.17-9Z" transform="translate(1.5 3.04)"/>
    <path class="cls-1" d="M22.89,279.95l18.5-19,21,18.67H221.06l42,23.33,20-6.67,6.67-30,15.33-14h30l68,33.67,331.33-46.33L764,251.55l1.4,5.9-9.5,48.5-20,9-35.5-15.5-229,13.5-180,36-270-9-7-19a97.69,97.69,0,0,1,8.5-41" transform="translate(1.5 3.04)"/>
    <rect class="cls-4" x="475.51" y="369.99" width="199.88" height="26.5" rx="11" ry="11"/>
    <path class="cls-5" d="M433.43,430.95" transform="translate(1.5 3.04)"/>
    <path class="cls-1" d="M213.71,216l50.85-14.38,89.33-51.33,48-40.67,14-20,41.33-4.67,58.67,39,42.5,20.5,70-9,61-54.5a27.67,27.67,0,0,1,15.83-3.33c11.82,1.14,18.53,9.82,19.67,11.33L737,139.83c-12.53-.3-57.71.15-99.75,33.11-41.54,32.57-52.92,75.65-55.72,88l-178.94,25-68-33.67-30.67.33-14.33,14-1.67,6.33-38.67-19.33-74.33-12.67Z" transform="translate(1.5 3.04)"/>
    <circle class="cls-6" cx="452.14" cy="108.24" r="7.75"/>
    <circle class="cls-6" cx="482.39" cy="125.49" r="7.5"/>
    <ellipse class="cls-6" cx="280.22" cy="218.54" rx="7.83" ry="7.78"/>
    <ellipse class="cls-6" cx="316.22" cy="198.65" rx="7.83" ry="7.78"/>
    <ellipse class="cls-6" cx="350.66" cy="178.17" rx="7.83" ry="7.78"/>
    <ellipse class="cls-6" cx="385.62" cy="156.48" rx="7.83" ry="7.78"/>
    <ellipse class="cls-6" cx="416.23" cy="133.78" rx="7.83" ry="7.78"/>
    <path class="cls-1" d="M41.89,260.95l133.5-20,79.38-51,202.12-130a36.5,36.5,0,0,1,38-5.21c15,6.69,19,23.24,21.5,33.21a69.43,69.43,0,0,1-.83,35.79l43.33,20.71,70-9,61-54.5a27.58,27.58,0,0,1,35.5,8l38.1,162.6-29.6-11.94L403.56,285.95l-68-33.67h-30l-15.33,14-6.83,29.67-20.33,7-41.5-23.33-159.17-.33Z" transform="translate(1.5 3.04)"/>
  </g>
</svg>
